<?xml version="1.0" encoding="UTF-8"?>
<!DOCTYPE svg PUBLIC "-//W3C//DTD SVG 1.0//EN" "http://www.w3.org/TR/2001/REC-SVG-20010904/DTD/svg10.dtd">
<!-- Creator: CorelDRAW 2017 -->
<svg xmlns="http://www.w3.org/2000/svg" xml:space="preserve" width="850px" height="300px" version="1.0" style="shape-rendering:geometricPrecision; text-rendering:geometricPrecision; image-rendering:optimizeQuality; fill-rule:evenodd; clip-rule:evenodd"
viewBox="0 0 85000 30000"
 xmlns:xlink="http://www.w3.org/1999/xlink">
 <defs>
  <style type="text/css">
   <![CDATA[
    .fil0 {fill:#007BFF}
    .fil1 {fill:#ED3237;fill-rule:nonzero}
   ]]>
  </style>
 </defs>
 <g id="Слой_x0020_1">
  <metadata id="CorelCorpID_0Corel-Layer"/>
  <path class="fil0" d="M24387 18231l-35 -5168c-26,-334 -240,-480 -577,-502l-5756 -11 -7 -5666c7,-415 -223,-631 -638,-690l-5060 -2c-326,72 -545,285 -637,668l44 7727c44,401 224,510 473,533l5543 0c756,109 1165,513 1255,1189l35 8439c-91,669 -524,1052 -1160,1266l-5901 -8c-671,-177 -1055,-620 -1171,-1309l8 -5011 -4949 -20c-809,-86 -1264,-526 -1317,-1366l17 -5333c100,-876 572,-1305 1291,-1439l1754 -3 0 419 -3 542c-547,-2 -1095,-5 -1642,-7 -371,84 -458,317 -452,602 -12,1732 -24,3464 -37,5197 46,295 253,430 588,437l5683 0 25 5851c59,324 261,488 586,501 1737,1 3474,3 5211,4 305,-89 474,-274 512,-553l-24 -8067c-107,-254 -300,-371 -562,-381l-5506 -5c-854,-26 -1172,-296 -1225,-907 2,-2850 4,-5701 7,-8552 122,-754 565,-1210 1343,-1353l5545 -4c905,76 1292,580 1286,1411l66 4919 4911 26c804,15 1299,416 1391,1320 7,1808 14,3615 20,5423 -65,814 -514,1219 -1202,1368l-1891 5 -7 -963 1602 4c308,-78 499,-253 563,-531zm4982 11293l-21201 0c-4184,0 -7606,-3423 -7606,-7606l0 -21202 21201 0c4184,0 7606,3423 7606,7606l0 21202z"/>
  <path class="fil1" d="M40454 5449l-5596 0c-490,11 -902,113 -1237,308 -335,195 -503,567 -503,1117 0,420 143,720 428,900 285,180 618,270 997,270l3000 -15c110,11 225,15 345,15 120,0 240,5 360,15 350,20 695,78 1036,173 340,95 640,267 900,517 240,221 420,485 540,795 120,311 195,630 225,960 10,101 17,198 22,293 5,95 8,192 8,292 -20,1250 -365,2098 -1035,2543 -671,445 -1580,668 -2731,668l-6030 0 0 -1921 5670 0c500,11 933,-70 1298,-240 365,-169 513,-555 443,-1155 -50,-469 -225,-760 -526,-870 -300,-109 -655,-169 -1065,-180l-2670 -15c-1110,11 -1987,-212 -2632,-667 -645,-455 -963,-1278 -953,-2468 20,-1249 368,-2102 1043,-2557 675,-455 1587,-683 2737,-683l5926 -15 0 1920z"/>
  <path id="1" class="fil1" d="M45647 3529l2400 0 4590 10771 -2520 0 -990 -2566 -4680 0 -960 2566 -2385 0 4545 -10771zm1110 2145l-1575 4140 3210 0 -1635 -4140z"/>
  <polygon id="2" class="fil1" points="53271,3529 56136,3529 60546,11269 60441,3529 62751,3529 62751,14300 60126,14300 55491,6154 55596,14300 53271,14300 "/>
  <path id="3" class="fil1" d="M67915 3529l2400 0 4590 10771 -2520 0 -990 -2566 -4680 0 -960 2566 -2385 0 4545 -10771zm1110 2145l-1575 4140 3210 0 -1635 -4140z"/>
  <polygon id="4" class="fil1" points="77894,5419 74429,5419 74429,3544 83729,3544 83729,5419 80234,5419 80234,14300 77894,14300 "/>
  <path id="5" class="fil1" d="M35788 18188c-1090,10 -1795,370 -2115,1080 -319,710 -495,1535 -525,2475 0,160 0,322 0,487 0,165 5,333 15,503 30,350 95,693 195,1027 101,336 266,633 495,893 240,270 518,438 833,502 315,66 637,98 967,98 20,0 43,0 68,0 25,0 48,0 67,0l3721 -15 0 1875 -3826 0c-610,0 -1197,-55 -1762,-165 -565,-110 -1098,-365 -1598,-765 -600,-490 -1020,-1088 -1260,-1793 -240,-705 -370,-1427 -390,-2167 -10,-160 -12,-315 -7,-465 5,-150 12,-300 22,-450 110,-1700 573,-2950 1388,-3750 815,-800 2037,-1200 3667,-1200l3766 -15 0 1845 -3721 0z"/>
  <path id="6" class="fil1" d="M46435 27113c-680,0 -1317,-53 -1912,-158 -595,-105 -1143,-422 -1643,-952 -430,-450 -700,-955 -810,-1515 -110,-560 -165,-1135 -165,-1725l0 -6420 2265 0 0 5910c-10,1000 100,1765 330,2295 230,530 940,795 2130,795l2670 -15 0 1785 -2865 0z"/>
  <polygon id="7" class="fil1" points="53872,27113 51502,27113 51502,16343 53872,16343 "/>
  <polygon id="8" class="fil1" points="57094,16343 59959,16343 64369,24083 64264,16343 66574,16343 66574,27113 63949,27113 59314,18968 59419,27113 57094,27113 "/>
  <polygon id="9" class="fil1" points="72136,27113 69766,27113 69766,16343 72136,16343 "/>
  <path id="10" class="fil1" d="M79798 18188c-1090,10 -1795,370 -2115,1080 -320,710 -495,1535 -525,2475 0,160 0,322 0,487 0,165 5,333 15,503 30,350 95,693 195,1027 100,336 265,633 495,893 240,270 517,438 832,502 315,66 638,98 968,98 20,0 42,0 67,0 25,0 48,0 68,0l3720 -15 0 1875 -3825 0c-610,0 -1198,-55 -1763,-165 -565,-110 -1097,-365 -1597,-765 -600,-490 -1020,-1088 -1260,-1793 -240,-705 -370,-1427 -390,-2167 -10,-160 -13,-315 -8,-465 5,-150 13,-300 23,-450 110,-1700 572,-2950 1387,-3750 815,-800 2038,-1200 3668,-1200l3765 -15 0 1845 -3720 0z"/>
 </g>
</svg>
