<?xml version="1.0" encoding="UTF-8"?>
<!DOCTYPE svg PUBLIC "-//W3C//DTD SVG 1.0//EN" "http://www.w3.org/TR/2001/REC-SVG-20010904/DTD/svg10.dtd">
<!-- Creator: CorelDRAW 2017 -->
<svg xmlns="http://www.w3.org/2000/svg" xml:space="preserve" width="1440px" height="300px" version="1.0" style="shape-rendering:geometricPrecision; text-rendering:geometricPrecision; image-rendering:optimizeQuality; fill-rule:evenodd; clip-rule:evenodd"
viewBox="0 0 144000 30000"
 xmlns:xlink="http://www.w3.org/1999/xlink">
 <defs>
  <style type="text/css">
   <![CDATA[
    .fil0 {fill:#007BFF}
    .fil1 {fill:#ED3237;fill-rule:nonzero}
    .fil2 {fill:#007BFF;fill-rule:nonzero}
   ]]>
  </style>
 </defs>
 <g id="Слой_x0020_1">
  <metadata id="CorelCorpID_0Corel-Layer"/>
  <path class="fil0" d="M24443 18107l-35 -5168c-26,-334 -240,-480 -577,-502l-5756 -12 -7 -5665c7,-415 -223,-631 -638,-690l-5060 -2c-326,72 -545,285 -637,668l44 7727c44,401 224,510 474,533l5542 0c756,109 1165,513 1255,1189l35 8439c-91,669 -524,1052 -1159,1266l-5902 -8c-671,-177 -1055,-621 -1171,-1309l8 -5011 -4949 -20c-809,-86 -1264,-526 -1317,-1366l17 -5334c100,-876 573,-1304 1291,-1439l1754 -2 0 419 -3 542c-547,-2 -1095,-5 -1642,-7 -371,84 -458,317 -451,602 -13,1732 -25,3464 -38,5197 46,295 253,430 588,437l5683 0 25 5851c59,324 261,488 586,501 1737,1 3474,3 5212,4 304,-89 473,-275 511,-553l-23 -8067c-108,-254 -301,-371 -563,-381l-5506 -5c-854,-26 -1172,-296 -1225,-907 3,-2851 5,-5702 7,-8552 122,-754 565,-1210 1343,-1353l5545 -4c905,76 1292,580 1286,1411l66 4918 4912 27c803,15 1298,416 1390,1320 7,1808 14,3615 20,5422 -65,815 -514,1220 -1202,1369l-1891 5 -7 -963 1602 4c308,-78 499,-253 563,-531zm4982 11293l-21201 0c-4184,0 -7606,-3423 -7606,-7606l0 -21202 21201 0c4184,0 7606,3423 7606,7606l0 21202z"/>
  <path class="fil1" d="M43415 7115l-5595 0c-490,10 -903,112 -1238,307 -335,195 -502,568 -502,1118 0,420 142,720 427,900 285,180 618,270 998,270l3000 -15c110,10 225,15 345,15 120,0 240,5 360,15 350,20 695,77 1035,172 340,95 640,268 900,518 240,220 420,485 540,795 120,310 195,630 225,960 10,100 17,197 22,292 5,95 8,193 8,293 -20,1250 -365,2097 -1035,2542 -670,445 -1580,668 -2730,668l-6030 0 0 -1920 5670 0c500,10 932,-70 1297,-240 365,-170 513,-555 443,-1155 -50,-470 -225,-760 -525,-870 -300,-110 -655,-170 -1065,-180l-2670 -15c-1110,10 -1988,-213 -2633,-668 -645,-455 -962,-1277 -952,-2467 20,-1250 367,-2103 1042,-2558 675,-455 1588,-682 2738,-682l5925 -15 0 1920z"/>
  <path id="1" class="fil1" d="M48725 5195l2400 0 4590 10770 -2520 0 -990 -2565 -4680 0 -960 2565 -2385 0 4545 -10770zm1110 2145l-1575 4140 3210 0 -1635 -4140z"/>
  <polygon id="2" class="fil1" points="56465,5195 59330,5195 63740,12935 63635,5195 65945,5195 65945,15965 63320,15965 58685,7820 58790,15965 56465,15965 "/>
  <path id="3" class="fil1" d="M71225 5195l2400 0 4590 10770 -2520 0 -990 -2565 -4680 0 -960 2565 -2385 0 4545 -10770zm1110 2145l-1575 4140 3210 0 -1635 -4140z"/>
  <polygon id="4" class="fil1" points="81320,7085 77855,7085 77855,5210 87155,5210 87155,7085 83660,7085 83660,15965 81320,15965 "/>
  <path id="5" class="fil1" d="M98495 7040c-1090,10 -1795,370 -2115,1080 -320,710 -495,1535 -525,2475 0,160 0,322 0,487 0,165 5,333 15,503 30,350 95,692 195,1027 100,335 265,633 495,893 240,270 518,437 833,502 315,65 637,98 967,98 20,0 43,0 68,0 24,0 47,0 67,0l3720 -15 0 1875 -3825 0c-610,0 -1198,-55 -1762,-165 -565,-110 -1098,-365 -1598,-765 -600,-490 -1020,-1088 -1260,-1793 -240,-705 -370,-1427 -390,-2167 -10,-160 -13,-315 -7,-465 5,-150 12,-300 22,-450 110,-1700 572,-2950 1388,-3750 815,-800 2037,-1200 3667,-1200l3765 -15 0 1845 -3720 0z"/>
  <path id="6" class="fil1" d="M108155 15965c-680,0 -1318,-53 -1912,-158 -595,-105 -1143,-422 -1643,-952 -430,-450 -700,-955 -810,-1515 -110,-560 -165,-1135 -165,-1725l0 -6420 2265 0 0 5910c-10,1000 100,1765 330,2295 230,530 940,795 2130,795l2670 -15 0 1785 -2865 0z"/>
  <polygon id="7" class="fil1" points="114605,15965 112235,15965 112235,5195 114605,5195 "/>
  <polygon id="8" class="fil1" points="116840,5195 119705,5195 124115,12935 124010,5195 126320,5195 126320,15965 123695,15965 119060,7820 119165,15965 116840,15965 "/>
  <polygon id="9" class="fil1" points="130895,15965 128525,15965 128525,5195 130895,5195 "/>
  <path id="10" class="fil1" d="M137570 7040c-1090,10 -1795,370 -2115,1080 -320,710 -495,1535 -525,2475 0,160 0,322 0,487 0,165 5,333 15,503 30,350 95,692 195,1027 100,335 265,633 495,893 240,270 518,437 833,502 315,65 637,98 967,98 20,0 43,0 68,0 25,0 47,0 67,0l3720 -15 0 1875 -3825 0c-610,0 -1197,-55 -1762,-165 -565,-110 -1098,-365 -1598,-765 -600,-490 -1020,-1088 -1260,-1793 -240,-705 -370,-1427 -390,-2167 -10,-160 -12,-315 -7,-465 5,-150 12,-300 22,-450 110,-1700 573,-2950 1388,-3750 815,-800 2037,-1200 3667,-1200l3765 -15 0 1845 -3720 0z"/>
  <path id="11" class="fil2" d="M39163 25792l0 -4218c-10,25 -25,71 -49,138 -23,67 -50,143 -83,230 -32,87 -67,177 -102,273 -36,97 -71,189 -108,277l-1298 3300 -542 0 -1378 -3300c-22,-57 -49,-125 -80,-207 -30,-80 -62,-165 -95,-253 -34,-88 -64,-172 -94,-253 -28,-82 -53,-150 -73,-205l0 4218 -557 0 0 -5000 777 0 1422 3365c28,68 60,145 95,233 33,89 68,177 101,267 35,90 67,175 94,257 28,80 51,146 71,200 15,-40 37,-97 64,-172 25,-75 55,-157 90,-243 33,-89 68,-179 105,-269 35,-91 68,-176 96,-255l1354 -3383 805 0 0 5000 -615 0z"/>
  <path id="12" class="fil2" d="M43003 23402c3,307 45,582 121,827 79,243 192,451 339,620 145,170 323,300 533,388 210,90 447,135 712,135 561,0 1095,-197 1596,-592l0 619c-478,341 -1058,513 -1738,513 -337,0 -640,-58 -913,-177 -274,-116 -507,-286 -699,-510 -191,-223 -340,-498 -445,-823 -103,-327 -156,-698 -156,-1115 0,-375 58,-722 171,-1042 114,-318 272,-595 474,-828 201,-233 441,-415 718,-547 277,-131 580,-198 908,-198 322,0 607,57 854,168 248,114 455,274 623,482 168,208 295,462 383,762 89,300 132,635 132,1005l0 313 -3613 0zm2968 -550c-8,-520 -133,-923 -370,-1210 -238,-287 -568,-430 -992,-430 -211,0 -408,37 -588,112 -180,75 -340,183 -477,325 -136,141 -250,315 -338,518 -90,203 -153,432 -188,685l2953 0z"/>
  <path id="13" class="fil2" d="M52906 27362l0 -1570 -3856 0 0 1570 -547 0 0 -2110 443 0c215,-313 405,-643 570,-993 163,-352 302,-714 412,-1090 111,-377 195,-764 255,-1164 58,-398 90,-803 96,-1213l2412 0 0 4460 759 0 0 2110 -544 0zm-840 -6020l-1235 0c-48,687 -171,1363 -368,2030 -197,668 -478,1295 -842,1880l2445 0 0 -3910z"/>
  <path id="14" class="fil2" d="M59291 25792l0 -4082c-23,35 -46,74 -68,112 -23,40 -47,75 -68,108l-2755 3862 -572 0 0 -5000 592 0 0 4043c16,-46 40,-96 70,-155 31,-56 70,-116 115,-181l2676 -3707 595 0 0 5000 -585 0z"/>
  <polygon id="15" class="fil2" points="67008,27612 67008,25792 62803,25792 62803,20792 63428,20792 63428,25252 66178,25252 66178,20792 66803,20792 66803,25252 67555,25252 67555,27612 "/>
  <path id="16" class="fil2" d="M73397 25792l0 -4082c-24,35 -47,74 -69,112 -23,40 -46,75 -68,108l-2755 3862 -572 0 0 -5000 592 0 0 4043c17,-46 40,-96 70,-155 32,-56 70,-116 115,-181l2677 -3707 595 0 0 5000 -585 0z"/>
  <polygon id="17" class="fil2" points="80283,25792 80283,23462 77533,23462 77533,25792 76908,25792 76908,20792 77533,20792 77533,22922 80283,22922 80283,20792 80908,20792 80908,25792 "/>
  <path id="18" class="fil2" d="M87160 25565c-372,225 -822,340 -1348,347 -358,3 -680,-58 -967,-185 -286,-128 -531,-305 -733,-530 -202,-227 -355,-493 -463,-802 -107,-306 -162,-641 -162,-1003 0,-375 58,-727 172,-1057 113,-331 280,-618 498,-865 218,-245 485,-440 800,-583 317,-143 676,-215 1085,-215 413,0 790,80 1132,240l0 663c-364,-241 -759,-363 -1182,-363 -295,0 -560,57 -790,168 -232,114 -427,267 -583,460 -159,194 -279,420 -362,680 -83,259 -125,534 -125,824 0,266 35,523 105,766 70,245 178,460 322,649 145,186 328,336 550,446 221,112 481,167 781,167 469,0 892,-140 1270,-422l0 615z"/>
  <polygon id="19" class="fil2" points="92595,25792 90320,23365 90300,23365 90300,25792 89675,25792 89675,20792 90300,20792 90300,23130 90320,23130 92527,20792 93344,20792 90975,23219 93475,25792 "/>
  <path id="20" class="fil2" d="M99112 25792l0 -4082c-23,35 -47,74 -68,112 -24,40 -47,75 -69,108l-2755 3862 -571 0 0 -5000 591 0 0 4043c17,-46 40,-96 70,-155 32,-56 70,-116 115,-181l2677 -3707 595 0 0 5000 -585 0z"/>
  <path id="21" class="fil2" d="M106087 25792l0 -4082c-23,35 -47,74 -68,112 -24,40 -47,75 -69,108l-2754 3862 -572 0 0 -5000 592 0 0 4043c16,-46 40,-96 70,-155 31,-56 69,-116 114,-181l2677 -3707 595 0 0 5000 -585 0zm-1428 -6348c148,0 288,-25 420,-74 130,-50 245,-118 343,-206 100,-89 180,-192 245,-309 64,-118 102,-246 114,-383l634 0c-28,202 -90,392 -183,568 -91,177 -213,329 -363,459 -150,128 -327,230 -530,303 -203,73 -432,110 -685,110 -255,0 -482,-37 -682,-110 -200,-73 -371,-175 -513,-303 -142,-130 -254,-282 -337,-459 -83,-176 -135,-366 -158,-568l635 0c13,143 45,275 95,395 50,120 120,222 207,307 88,85 195,151 320,198 126,48 271,72 438,72z"/>
  <polygon id="22" class="fil2" points="115777,27612 115777,25792 111572,25792 111572,20792 112197,20792 112197,25252 114947,25252 114947,20792 115572,20792 115572,25252 116323,25252 116323,27612 "/>
  <path id="23" class="fil2" d="M119000 23402c4,307 45,582 122,827 78,243 192,451 338,620 145,170 324,300 534,388 210,90 446,135 711,135 562,0 1095,-197 1597,-592l0 619c-478,341 -1058,513 -1738,513 -337,0 -640,-58 -914,-177 -273,-116 -506,-286 -698,-510 -192,-223 -340,-498 -445,-823 -103,-327 -157,-698 -157,-1115 0,-375 59,-722 172,-1042 113,-318 272,-595 473,-828 202,-233 442,-415 719,-547 276,-131 580,-198 908,-198 322,0 607,57 853,168 249,114 455,274 624,482 168,208 294,462 383,762 88,300 132,635 132,1005l0 313 -3614 0zm2969 -550c-9,-520 -134,-923 -370,-1210 -239,-287 -569,-430 -992,-430 -212,0 -408,37 -588,112 -180,75 -340,183 -477,325 -137,141 -250,315 -338,518 -90,203 -154,432 -189,685l2954 0z"/>
  <polygon id="24" class="fil2" points="128529,25792 128529,23462 125779,23462 125779,25792 125154,25792 125154,20792 125779,20792 125779,22922 128529,22922 128529,20792 129154,20792 129154,25792 "/>
  <polygon id="25" class="fil2" points="133539,21342 133539,25792 132914,25792 132914,21342 131410,21342 131410,20792 135039,20792 135039,21342 "/>
  <path id="26" class="fil2" d="M137916 24989l0 3103 -625 0 0 -7300 625 0 0 955 20 0c185,-348 433,-615 745,-798 310,-185 661,-277 1051,-277 320,0 605,58 857,173 253,117 467,280 640,492 175,212 308,468 400,772 93,303 140,643 140,1021 0,415 -52,792 -157,1132 -103,340 -253,633 -448,878 -195,244 -433,434 -712,569 -278,135 -591,203 -940,203 -701,0 -1228,-308 -1576,-923l-20 0zm0 -1279c0,229 38,442 115,642 76,202 183,377 320,528 136,152 301,272 496,360 194,89 407,132 642,132 250,0 477,-53 678,-158 202,-107 374,-257 515,-454 142,-195 250,-431 327,-708 77,-277 115,-587 115,-928 0,-294 -35,-559 -107,-795 -71,-237 -173,-437 -305,-604 -131,-166 -291,-293 -478,-381 -188,-89 -397,-132 -628,-132 -260,0 -495,48 -704,145 -208,95 -385,227 -531,393 -147,165 -259,360 -337,584 -78,223 -118,460 -118,711l0 665z"/>
 </g>
</svg>
