<?xml version="1.0" encoding="UTF-8"?>
<!DOCTYPE svg PUBLIC "-//W3C//DTD SVG 1.0//EN" "http://www.w3.org/TR/2001/REC-SVG-20010904/DTD/svg10.dtd">
<!-- Creator: CorelDRAW 2017 -->
<svg xmlns="http://www.w3.org/2000/svg" xml:space="preserve" width="820px" height="300px" version="1.0" style="shape-rendering:geometricPrecision; text-rendering:geometricPrecision; image-rendering:optimizeQuality; fill-rule:evenodd; clip-rule:evenodd"
viewBox="0 0 82000 30000"
 xmlns:xlink="http://www.w3.org/1999/xlink">
 <defs>
  <style type="text/css">
   <![CDATA[
    .fil0 {fill:#007BFF}
    .fil1 {fill:#ED3237;fill-rule:nonzero}
   ]]>
  </style>
 </defs>
 <g id="Слой_x0020_1">
  <metadata id="CorelCorpID_0Corel-Layer"/>
  <path class="fil0" d="M23926 18131l-35 -5168c-26,-333 -240,-480 -577,-502l-5756 -11 -7 -5666c7,-415 -223,-630 -638,-690l-5060 -2c-325,72 -544,285 -637,668l44 7727c45,401 224,510 474,533l5542 0c757,109 1165,514 1256,1189l35 8439c-91,670 -524,1053 -1160,1266l-5902 -7c-671,-178 -1054,-621 -1170,-1310l8 -5011 -4950 -20c-808,-86 -1263,-525 -1317,-1366l17 -5333c100,-876 573,-1305 1292,-1439l1754 -3 -1 419 -3 542c-547,-2 -1094,-5 -1641,-7 -371,84 -459,318 -452,602 -12,1732 -25,3464 -37,5197 46,295 253,430 588,437l5683 0 25 5851c58,324 260,488 586,501 1737,2 3474,3 5211,4 305,-89 474,-274 512,-553l-24 -8067c-108,-254 -301,-371 -562,-381l-5507 -5c-853,-26 -1171,-296 -1224,-907 2,-2850 4,-5701 6,-8552 123,-754 565,-1210 1343,-1352l5546 -5c904,76 1292,581 1285,1411l67 4919 4911 26c804,15 1298,416 1391,1320 7,1808 13,3615 20,5423 -66,815 -515,1219 -1202,1368l-1892 6 -6 -964 1602 4c308,-78 499,-253 562,-531zm4983 11293l-21202 0c-4183,0 -7606,-3423 -7606,-7606l0 -21202 21202 0c4183,0 7606,3423 7606,7606l0 21202z"/>
  <path class="fil1" d="M39642 5350l-5595 0c-490,10 -903,112 -1237,307 -336,195 -503,568 -503,1118 0,420 143,720 428,900 285,180 617,270 997,270l3000 -15c110,10 225,15 345,15 120,0 240,5 360,15 350,20 695,77 1035,172 340,95 640,268 900,518 240,220 420,485 540,795 120,310 195,630 225,960 10,100 17,197 23,292 4,95 7,193 7,293 -20,1250 -365,2097 -1035,2542 -670,445 -1580,668 -2730,668l-6030 0 0 -1920 5670 0c500,10 932,-70 1298,-240 364,-170 512,-555 442,-1155 -50,-470 -225,-760 -525,-870 -300,-110 -655,-170 -1065,-180l-2670 -15c-1110,10 -1987,-213 -2632,-668 -645,-455 -963,-1277 -953,-2467 20,-1250 368,-2103 1043,-2558 675,-455 1587,-682 2737,-682l5925 -15 0 1920z"/>
  <path id="1" class="fil1" d="M44488 3430l2400 0 4590 10770 -2520 0 -990 -2565 -4680 0 -960 2565 -2385 0 4545 -10770zm1110 2145l-1575 4140 3210 0 -1635 -4140z"/>
  <polygon id="2" class="fil1" points="51763,3430 54628,3430 59038,11170 58933,3430 61243,3430 61243,14200 58618,14200 53983,6055 54088,14200 51763,14200 "/>
  <path id="3" class="fil1" d="M66059 3430l2400 0 4590 10770 -2520 0 -990 -2565 -4680 0 -960 2565 -2385 0 4545 -10770zm1110 2145l-1575 4140 3210 0 -1635 -4140z"/>
  <polygon id="4" class="fil1" points="75689,5320 72224,5320 72224,3445 81524,3445 81524,5320 78029,5320 78029,14200 75689,14200 "/>
  <path id="5" class="fil1" d="M34977 18088c-1090,10 -1795,370 -2115,1080 -320,710 -495,1535 -525,2475 0,160 0,323 0,488 0,165 5,332 15,502 30,350 95,693 195,1028 100,335 265,632 495,892 240,270 518,438 833,503 315,65 637,97 967,97 20,0 42,0 68,0 24,0 47,0 67,0l3720 -15 0 1875 -3825 0c-610,0 -1198,-55 -1762,-165 -566,-110 -1098,-365 -1598,-765 -600,-490 -1020,-1087 -1260,-1792 -240,-705 -370,-1428 -390,-2168 -10,-160 -13,-315 -7,-465 4,-150 12,-300 22,-450 110,-1700 572,-2950 1388,-3750 814,-800 2037,-1200 3667,-1200l3765 -15 0 1845 -3720 0z"/>
  <path id="6" class="fil1" d="M45334 27013c-680,0 -1318,-52 -1913,-157 -595,-105 -1142,-423 -1642,-953 -430,-450 -700,-955 -810,-1515 -110,-560 -165,-1135 -165,-1725l0 -6420 2265 0 0 5910c-10,1000 100,1765 330,2295 230,530 940,795 2130,795l2670 -15 0 1785 -2865 0z"/>
  <polygon id="7" class="fil1" points="52480,27013 50110,27013 50110,16243 52480,16243 "/>
  <polygon id="8" class="fil1" points="55412,16243 58277,16243 62687,23983 62582,16243 64892,16243 64892,27013 62267,27013 57632,18868 57737,27013 55412,27013 "/>
  <polygon id="9" class="fil1" points="70163,27013 67793,27013 67793,16243 70163,16243 "/>
  <path id="10" class="fil1" d="M77535 18088c-1090,10 -1795,370 -2115,1080 -320,710 -495,1535 -525,2475 0,160 0,323 0,488 0,165 5,332 15,502 30,350 95,693 195,1028 100,335 265,632 495,892 240,270 518,438 833,503 315,65 637,97 967,97 20,0 43,0 68,0 25,0 47,0 67,0l3720 -15 0 1875 -3825 0c-610,0 -1197,-55 -1762,-165 -565,-110 -1098,-365 -1598,-765 -600,-490 -1020,-1087 -1260,-1792 -240,-705 -370,-1428 -390,-2168 -10,-160 -12,-315 -7,-465 5,-150 12,-300 22,-450 110,-1700 573,-2950 1388,-3750 815,-800 2037,-1200 3667,-1200l3765 -15 0 1845 -3720 0z"/>
 </g>
</svg>
